<svg width="716" height="445" viewBox="0 0 716 445" fill="none" xmlns="http://www.w3.org/2000/svg">
<path d="M4 426.669C19.1516 425.379 38.9381 409.068 50.0249 401.709C112.293 360.383 169.362 309.401 206.607 246.351C215.585 231.154 223.102 215.385 226.29 198.175C227.79 190.078 230.769 174.203 226.29 166.24C216.108 148.135 176.316 205.803 174.782 208.361C148.013 252.979 128.329 305.839 125.036 357.203C123.877 375.272 124.643 396.511 135.22 412.538C154.18 441.266 195.954 443.814 227.857 439.149C279.322 431.626 327.009 408.532 370.045 382.163C447.614 334.635 516.825 273.373 577.157 207.718C614.364 167.228 647.365 123.717 675.18 77.0449C687.538 56.3098 702.786 26.5574 712 4" stroke="#0E0E0E" stroke-width="7" stroke-linecap="round"/>
</svg>
