<svg width="716" height="445" viewBox="0 0 716 445" fill="none" xmlns="http://www.w3.org/2000/svg">
<path d="M4 18.3306C19.1516 19.6213 38.9381 35.9325 50.0249 43.2907C112.293 84.617 169.362 135.599 206.607 198.649C215.585 213.846 223.102 229.615 226.29 246.825C227.79 254.922 230.769 270.797 226.29 278.76C216.108 296.865 176.316 239.197 174.782 236.639C148.013 192.021 128.329 139.161 125.036 87.7966C123.877 69.7278 124.643 48.4887 135.22 32.4624C154.18 3.73397 195.954 1.18638 227.857 5.85056C279.322 13.3745 327.009 36.4677 370.045 62.8366C447.614 110.365 516.825 171.627 577.157 237.282C614.364 277.772 647.365 321.283 675.18 367.955C687.538 388.69 702.786 418.443 712 441" stroke="#0E0E0E" stroke-width="7" stroke-linecap="round"/>
</svg>
