<svg width="1086" height="121" viewBox="0 0 1086 121" fill="none" xmlns="http://www.w3.org/2000/svg">
<path d="M366.201 98.1764V86.84H371.887V72.6608H366.201V58.4469H360.516V44.2677H354.83V30.0539H363.358V24.3683H335V30.0539H343.494V44.2677H349.145V58.4469H354.83V72.6608H360.516V98.1764H366.201ZM388.909 44.2677V30.0539H397.437V24.3683H374.729V30.0539H383.223V44.2677H388.909ZM383.223 58.4469V44.2677H377.572V58.4469H383.223ZM377.572 72.6608V58.4469H371.887V72.6608H377.572ZM360.516 109.548V98.1764H354.83V109.548H360.516ZM349.145 120.919V115.233H354.83V109.548H337.843V120.919H349.145Z" fill="#0E0E0E"/>
<path d="M510.778 88.64C526.858 88.64 535.858 79.76 539.098 68H527.098C526.018 72.08 521.818 79.04 511.018 79.04C498.898 79.04 492.898 69.56 492.658 59.36H539.698C539.818 58.4 539.818 56.6 539.818 54.92C539.818 35.96 529.378 23.72 510.778 23.72C492.058 23.72 480.538 36.92 480.538 56.12C480.538 74.84 491.338 88.64 510.778 88.64ZM492.658 50.12C493.378 40.04 500.578 33.32 510.418 33.32C520.858 33.32 527.578 40.52 527.578 50.12H492.658Z" fill="#0E0E0E"/>
<path d="M535.662 86.84H549.342L565.542 63.44H565.782L582.342 86.84H596.142L572.862 55.52L593.862 25.64H580.422L566.022 47.48H565.782L551.142 25.64H537.702L558.702 55.52L535.662 86.84Z" fill="#0E0E0E"/>
<path d="M628.939 88.52C644.539 88.52 656.419 76.4 656.419 56.24C656.419 36.08 644.539 23.84 628.939 23.84C619.339 23.84 613.459 28.52 610.099 32.84H609.859V25.64H598.099V108.08H609.859V79.28H610.099C613.459 84.2 619.339 88.52 628.939 88.52ZM609.979 56.24C609.979 42.32 616.459 33.68 627.019 33.68C638.539 33.68 644.059 44.24 644.059 56.24C644.059 68.24 638.539 78.8 627.019 78.8C616.459 78.8 609.979 70.04 609.979 56.24Z" fill="#0E0E0E"/>
<path d="M690.056 88.64C706.136 88.64 715.136 79.76 718.376 68H706.376C705.296 72.08 701.096 79.04 690.296 79.04C678.176 79.04 672.176 69.56 671.936 59.36H718.976C719.096 58.4 719.096 56.6 719.096 54.92C719.096 35.96 708.656 23.72 690.056 23.72C671.336 23.72 659.816 36.92 659.816 56.12C659.816 74.84 670.616 88.64 690.056 88.64ZM671.936 50.12C672.656 40.04 679.856 33.32 689.696 33.32C700.136 33.32 706.856 40.52 706.856 50.12H671.936Z" fill="#0E0E0E"/>
<path d="M737.19 55.16C737.19 43.52 744.87 35.48 755.55 35.48C756.99 35.48 758.07 35.6 759.51 35.84V24.56C757.71 24.32 756.03 24.2 753.87 24.2C745.59 24.2 740.67 29.6 737.43 37.28H737.19V25.64H725.43V86.84H737.19V55.16Z" fill="#0E0E0E"/>
<path d="M763.549 86.84H775.309V25.64H763.549V86.84ZM762.829 14.72H776.149V1.99999H762.829V14.72Z" fill="#0E0E0E"/>
<path d="M821.63 47.6V86.84H833.39V49.28C833.39 40.04 838.91 33.92 847.67 33.92C856.67 33.92 858.35 39.44 858.35 47.6V86.84H870.11V44.36C870.11 31.28 863.87 23.84 851.51 23.84C842.15 23.84 835.91 28.64 831.47 34.52H831.23C828.83 27.68 823.55 23.84 815.03 23.84C805.79 23.84 800.15 28.64 796.91 33.32H796.67V25.64H784.91V86.84H796.67V49.28C796.67 40.04 802.19 33.92 810.95 33.92C819.95 33.92 821.63 39.44 821.63 47.6Z" fill="#0E0E0E"/>
<path d="M906.516 88.64C922.596 88.64 931.596 79.76 934.836 68H922.836C921.756 72.08 917.556 79.04 906.756 79.04C894.636 79.04 888.636 69.56 888.396 59.36H935.436C935.556 58.4 935.556 56.6 935.556 54.92C935.556 35.96 925.116 23.72 906.516 23.72C887.796 23.72 876.276 36.92 876.276 56.12C876.276 74.84 887.076 88.64 906.516 88.64ZM888.396 50.12C889.116 40.04 896.316 33.32 906.156 33.32C916.596 33.32 923.316 40.52 923.316 50.12H888.396Z" fill="#0E0E0E"/>
<path d="M982.69 47.6V86.84H994.449V44.36C994.449 30.32 985.33 23.84 974.049 23.84C963.49 23.84 957.129 28.64 953.889 33.32H953.649V25.64H941.889V86.84H953.649V49.28C953.649 40.04 960.129 33.92 970.209 33.92C979.089 33.92 982.69 39.44 982.69 47.6Z" fill="#0E0E0E"/>
<path d="M1023.14 87.56C1025.66 87.56 1027.58 87.44 1030.58 86.84V77.36C1028.54 77.72 1027.58 77.84 1025.54 77.84C1020.5 77.84 1018.7 76.4 1018.7 69.92V35.36H1030.46V25.64H1018.7V5.95999H1006.94V25.64H998.057V35.36H1006.94V69.56C1006.94 83.72 1013.06 87.56 1023.14 87.56Z" fill="#0E0E0E"/>
<path d="M1060.76 88.52C1076.84 88.52 1085.96 81.32 1085.96 69.44C1085.96 55.76 1073.72 52.52 1062.44 49.88C1053.8 47.96 1046.96 47.36 1046.96 41C1046.96 36.44 1050.32 33.32 1058.24 33.32C1068.44 33.32 1070.96 38.72 1071.8 43.4H1083.68C1082.84 32.84 1074.8 23.84 1058 23.84C1043.24 23.84 1034.72 30.92 1034.72 41.48C1034.72 54.2 1046.96 57.32 1057.64 59.84C1065.56 61.52 1073.72 62.36 1073.72 70.04C1073.72 74.48 1070.96 79.04 1060.64 79.04C1049.24 79.04 1044.92 73.52 1044.44 66.44H1032.56C1032.92 78.92 1042.16 88.52 1060.76 88.52Z" fill="#0E0E0E"/>
<path d="M401.157 52.84H410.157V61.84H401.157V52.84Z" fill="#0E0E0E"/>
<path d="M410.157 61.84H419.157V70.84H410.157V61.84Z" fill="#0E0E0E"/>
<path d="M419.157 52.84H428.157V61.84H419.157V52.84Z" fill="#0E0E0E"/>
<path d="M428.157 43.84H437.157V52.84H428.157V43.84Z" fill="#0E0E0E"/>
<path d="M437.157 43.84C442.128 43.84 446.157 47.8694 446.157 52.84H437.157V43.84Z" fill="#0E0E0E"/>
<path d="M446.157 52.84H437.157V57.34C437.157 64.7958 443.201 70.84 450.657 70.84C458.113 70.84 464.157 64.7958 464.157 57.34V52.84H455.157V57.34C455.157 59.8253 453.142 61.84 450.657 61.84C448.172 61.84 446.157 59.8253 446.157 57.34V52.84Z" fill="#0E0E0E"/>
<path d="M30.72 88.8C46.8 88.8 55.8 79.92 59.04 68.16H47.04C45.96 72.24 41.76 79.2 30.96 79.2C18.84 79.2 12.84 69.72 12.6 59.52H59.64C59.76 58.56 59.76 56.76 59.76 55.08C59.76 36.12 49.32 23.88 30.72 23.88C12 23.88 0.47998 37.08 0.47998 56.28C0.47998 75 11.28 88.8 30.72 88.8ZM12.6 50.28C13.32 40.2 20.52 33.48 30.36 33.48C40.8 33.48 47.52 40.68 47.52 50.28H12.6Z" fill="#0E0E0E"/>
<path d="M106.894 47.76V87H118.654V44.52C118.654 30.48 109.534 24 98.2537 24C87.6937 24 81.3337 28.8 78.0937 33.48H77.8537V25.8H66.0937V87H77.8537V49.44C77.8537 40.2 84.3337 34.08 94.4137 34.08C103.294 34.08 106.894 39.6 106.894 47.76Z" fill="#0E0E0E"/>
<path d="M152.127 88.68C161.727 88.68 167.607 84.12 170.967 79.8H171.207V87H182.967V1.19999H171.207V33.24H170.967C167.607 28.44 161.727 24 152.127 24C136.527 24 124.647 36.24 124.647 56.4C124.647 76.56 136.527 88.68 152.127 88.68ZM136.887 56.4C136.887 44.4 142.527 33.84 154.047 33.84C164.607 33.84 171.087 42.48 171.087 56.4C171.087 70.2 164.607 78.96 154.047 78.96C142.527 78.96 136.887 68.4 136.887 56.4Z" fill="#0E0E0E"/>
<path d="M241.443 88.8C260.523 88.8 272.043 75.48 272.043 56.28C272.043 37.2 260.523 23.88 241.563 23.88C222.363 23.88 210.843 37.32 210.843 56.4C210.843 75.6 222.363 88.8 241.443 88.8ZM223.083 56.4C223.083 43.56 228.843 33.72 241.563 33.72C254.043 33.72 259.803 43.56 259.803 56.4C259.803 69.12 254.043 79.08 241.563 79.08C228.843 79.08 223.083 69.12 223.083 56.4Z" fill="#0E0E0E"/>
<path d="M281.248 18.36V25.8H272.848V35.52H281.248V87H293.128V35.52H304.528V25.8H293.128V18.12C293.128 11.64 294.568 10.2 299.488 10.2C301.168 10.2 302.128 10.32 304.528 10.56V1.07999C301.168 0.599989 299.368 0.359985 297.088 0.359985C287.128 0.359985 281.248 4.19999 281.248 18.36Z" fill="#0E0E0E"/>
</svg>
