<svg width="667" height="120" viewBox="0 0 667 120" fill="none" xmlns="http://www.w3.org/2000/svg">
<path d="M32.0439 96.3364V85H37.7295V70.8208H32.0439V56.6069H26.3584V42.4277H20.6729V28.2139H29.2012V22.5283H0.842773V28.2139H9.33643V42.4277H14.9873V56.6069H20.6729V70.8208H26.3584V96.3364H32.0439ZM54.7515 42.4277V28.2139H63.2798V22.5283H40.5723V28.2139H49.0659V42.4277H54.7515ZM49.0659 56.6069V42.4277H43.415V56.6069H49.0659ZM43.415 70.8208V56.6069H37.7295V70.8208H43.415ZM26.3584 107.708V96.3364H20.6729V107.708H26.3584ZM14.9873 119.079V113.393H20.6729V107.708H3.68555V119.079H14.9873ZM91.2879 86.8C107.368 86.8 116.368 77.92 119.608 66.16H107.608C106.528 70.24 102.328 77.2 91.5279 77.2C79.4079 77.2 73.4079 67.72 73.1679 57.52H120.208C120.328 56.56 120.328 54.76 120.328 53.08C120.328 34.12 109.888 21.88 91.2879 21.88C72.5679 21.88 61.0479 35.08 61.0479 54.28C61.0479 73 71.8479 86.8 91.2879 86.8ZM73.1679 48.28C73.8879 38.2 81.0879 31.48 90.9279 31.48C101.368 31.48 108.088 38.68 108.088 48.28H73.1679ZM116.172 85H129.852L146.052 61.6H146.292L162.852 85H176.652L153.372 53.68L174.372 23.8H160.932L146.532 45.64H146.292L131.652 23.8H118.212L139.212 53.68L116.172 85ZM209.449 86.68C225.049 86.68 236.929 74.56 236.929 54.4C236.929 34.24 225.049 22 209.449 22C199.849 22 193.969 26.68 190.609 31H190.369V23.8H178.609V106.24H190.369V77.44H190.609C193.969 82.36 199.849 86.68 209.449 86.68ZM190.489 54.4C190.489 40.48 196.969 31.84 207.529 31.84C219.049 31.84 224.569 42.4 224.569 54.4C224.569 66.4 219.049 76.96 207.529 76.96C196.969 76.96 190.489 68.2 190.489 54.4ZM270.566 86.8C286.646 86.8 295.646 77.92 298.886 66.16H286.886C285.806 70.24 281.606 77.2 270.806 77.2C258.686 77.2 252.686 67.72 252.446 57.52H299.486C299.606 56.56 299.606 54.76 299.606 53.08C299.606 34.12 289.166 21.88 270.566 21.88C251.846 21.88 240.326 35.08 240.326 54.28C240.326 73 251.126 86.8 270.566 86.8ZM252.446 48.28C253.166 38.2 260.366 31.48 270.206 31.48C280.646 31.48 287.366 38.68 287.366 48.28H252.446ZM317.7 53.32C317.7 41.68 325.38 33.64 336.06 33.64C337.5 33.64 338.58 33.76 340.02 34V22.72C338.22 22.48 336.54 22.36 334.38 22.36C326.1 22.36 321.18 27.76 317.94 35.44H317.7V23.8H305.94V85H317.7V53.32ZM344.059 85H355.819V23.8H344.059V85ZM343.339 12.88H356.659V0.159998H343.339V12.88ZM402.139 45.76V85H413.899V47.44C413.899 38.2 419.419 32.08 428.179 32.08C437.179 32.08 438.859 37.6 438.859 45.76V85H450.619V42.52C450.619 29.44 444.379 22 432.019 22C422.659 22 416.419 26.8 411.979 32.68H411.739C409.339 25.84 404.059 22 395.539 22C386.299 22 380.659 26.8 377.419 31.48H377.179V23.8H365.419V85H377.179V47.44C377.179 38.2 382.699 32.08 391.459 32.08C400.459 32.08 402.139 37.6 402.139 45.76ZM487.025 86.8C503.105 86.8 512.105 77.92 515.345 66.16H503.345C502.265 70.24 498.065 77.2 487.265 77.2C475.145 77.2 469.145 67.72 468.905 57.52H515.945C516.065 56.56 516.065 54.76 516.065 53.08C516.065 34.12 505.625 21.88 487.025 21.88C468.305 21.88 456.785 35.08 456.785 54.28C456.785 73 467.585 86.8 487.025 86.8ZM468.905 48.28C469.625 38.2 476.825 31.48 486.665 31.48C497.105 31.48 503.825 38.68 503.825 48.28H468.905ZM563.199 45.76V85H574.959V42.52C574.959 28.48 565.839 22 554.559 22C543.999 22 537.639 26.8 534.399 31.48H534.159V23.8H522.399V85H534.159V47.44C534.159 38.2 540.639 32.08 550.719 32.08C559.599 32.08 563.199 37.6 563.199 45.76ZM603.647 85.72C606.167 85.72 608.087 85.6 611.087 85V75.52C609.047 75.88 608.087 76 606.047 76C601.007 76 599.207 74.56 599.207 68.08V33.52H610.967V23.8H599.207V4.12H587.447V23.8H578.567V33.52H587.447V67.72C587.447 81.88 593.567 85.72 603.647 85.72ZM641.272 86.68C657.352 86.68 666.472 79.48 666.472 67.6C666.472 53.92 654.232 50.68 642.952 48.04C634.312 46.12 627.472 45.52 627.472 39.16C627.472 34.6 630.832 31.48 638.752 31.48C648.952 31.48 651.472 36.88 652.312 41.56H664.192C663.352 31 655.312 22 638.512 22C623.752 22 615.232 29.08 615.232 39.64C615.232 52.36 627.472 55.48 638.152 58C646.072 59.68 654.232 60.52 654.232 68.2C654.232 72.64 651.472 77.2 641.152 77.2C629.752 77.2 625.432 71.68 624.952 64.6H613.072C613.432 77.08 622.672 86.68 641.272 86.68Z" fill="#121212"/>
</svg>
