<svg width="752" height="120" viewBox="0 0 752 120" fill="none" xmlns="http://www.w3.org/2000/svg">
<path d="M32.0439 96.3365V85H37.7295V70.8208H32.0439V56.607H26.3584V42.4278H20.6729V28.2139H29.2012V22.5284H0.842773V28.2139H9.33643V42.4278H14.9873V56.607H20.6729V70.8208H26.3584V96.3365H32.0439ZM54.7515 42.4278V28.2139H63.2798V22.5284H40.5723V28.2139H49.0659V42.4278H54.7515ZM49.0659 56.607V42.4278H43.415V56.607H49.0659ZM43.415 70.8208V56.607H37.7295V70.8208H43.415ZM26.3584 107.708V96.3365H20.6729V107.708H26.3584ZM14.9873 119.079V113.393H20.6729V107.708H3.68555V119.079H14.9873Z" fill="black"/>
<path d="M176.621 86.8C192.701 86.8 201.701 77.92 204.941 66.16H192.941C191.861 70.24 187.661 77.2 176.861 77.2C164.741 77.2 158.741 67.72 158.501 57.52H205.541C205.661 56.56 205.661 54.76 205.661 53.08C205.661 34.12 195.221 21.88 176.621 21.88C157.901 21.88 146.381 35.08 146.381 54.28C146.381 73 157.181 86.8 176.621 86.8ZM158.501 48.28C159.221 38.2 166.421 31.48 176.261 31.48C186.701 31.48 193.421 38.68 193.421 48.28H158.501Z" fill="black"/>
<path d="M201.505 85H215.185L231.385 61.6H231.625L248.185 85H261.985L238.705 53.68L259.705 23.8H246.265L231.865 45.64H231.625L216.985 23.8H203.545L224.545 53.68L201.505 85Z" fill="black"/>
<path d="M294.782 86.68C310.382 86.68 322.262 74.56 322.262 54.4C322.262 34.24 310.382 22 294.782 22C285.182 22 279.302 26.68 275.942 31H275.702V23.8H263.942V106.24H275.702V77.44H275.942C279.302 82.36 285.182 86.68 294.782 86.68ZM275.822 54.4C275.822 40.48 282.302 31.84 292.862 31.84C304.382 31.84 309.902 42.4 309.902 54.4C309.902 66.4 304.382 76.96 292.862 76.96C282.302 76.96 275.822 68.2 275.822 54.4Z" fill="black"/>
<path d="M355.899 86.8C371.979 86.8 380.979 77.92 384.219 66.16H372.219C371.139 70.24 366.939 77.2 356.139 77.2C344.019 77.2 338.019 67.72 337.779 57.52H384.819C384.939 56.56 384.939 54.76 384.939 53.08C384.939 34.12 374.499 21.88 355.899 21.88C337.179 21.88 325.659 35.08 325.659 54.28C325.659 73 336.459 86.8 355.899 86.8ZM337.779 48.28C338.499 38.2 345.699 31.48 355.539 31.48C365.979 31.48 372.699 38.68 372.699 48.28H337.779Z" fill="black"/>
<path d="M403.033 53.32C403.033 41.68 410.713 33.64 421.393 33.64C422.833 33.64 423.913 33.76 425.353 34V22.72C423.553 22.48 421.873 22.36 419.713 22.36C411.433 22.36 406.513 27.76 403.273 35.44H403.033V23.8H391.273V85H403.033V53.32Z" fill="black"/>
<path d="M429.392 85H441.152V23.8H429.392V85ZM428.672 12.88H441.992V0.160034H428.672V12.88Z" fill="black"/>
<path d="M487.473 45.76V85H499.233V47.44C499.233 38.2 504.753 32.08 513.513 32.08C522.513 32.08 524.193 37.6 524.193 45.76V85H535.953V42.52C535.953 29.44 529.713 22 517.353 22C507.993 22 501.753 26.8 497.313 32.68H497.073C494.673 25.84 489.393 22 480.873 22C471.633 22 465.993 26.8 462.753 31.48H462.513V23.8H450.753V85H462.513V47.44C462.513 38.2 468.033 32.08 476.793 32.08C485.793 32.08 487.473 37.6 487.473 45.76Z" fill="black"/>
<path d="M572.359 86.8C588.439 86.8 597.438 77.92 600.678 66.16H588.678C587.598 70.24 583.399 77.2 572.599 77.2C560.479 77.2 554.478 67.72 554.238 57.52H601.279C601.399 56.56 601.398 54.76 601.398 53.08C601.398 34.12 590.959 21.88 572.359 21.88C553.639 21.88 542.118 35.08 542.118 54.28C542.118 73 552.919 86.8 572.359 86.8ZM554.238 48.28C554.958 38.2 562.158 31.48 571.998 31.48C582.438 31.48 589.159 38.68 589.159 48.28H554.238Z" fill="black"/>
<path d="M648.532 45.76V85H660.292V42.52C660.292 28.48 651.172 22 639.892 22C629.332 22 622.972 26.8 619.732 31.48H619.492V23.8H607.732V85H619.492V47.44C619.492 38.2 625.972 32.08 636.052 32.08C644.932 32.08 648.532 37.6 648.532 45.76Z" fill="black"/>
<path d="M688.98 85.72C691.5 85.72 693.42 85.6 696.42 85V75.52C694.38 75.88 693.42 76 691.38 76C686.34 76 684.54 74.56 684.54 68.08V33.52H696.3V23.8H684.54V4.12003H672.78V23.8H663.9V33.52H672.78V67.72C672.78 81.88 678.9 85.72 688.98 85.72Z" fill="black"/>
<path d="M726.605 86.68C742.685 86.68 751.805 79.48 751.805 67.6C751.805 53.92 739.565 50.68 728.285 48.04C719.645 46.12 712.805 45.52 712.805 39.16C712.805 34.6 716.165 31.48 724.085 31.48C734.285 31.48 736.805 36.88 737.645 41.56H749.525C748.685 31 740.645 22 723.845 22C709.085 22 700.565 29.08 700.565 39.64C700.565 52.36 712.805 55.48 723.485 58C731.405 59.68 739.565 60.52 739.565 68.2C739.565 72.64 736.805 77.2 726.485 77.2C715.085 77.2 710.765 71.68 710.285 64.6H698.405C698.765 77.08 708.005 86.68 726.605 86.68Z" fill="black"/>
<path d="M67 51H76V60H67V51Z" fill="black"/>
<path d="M76 60H85V69H76V60Z" fill="black"/>
<path d="M85 51H94V60H85V51Z" fill="black"/>
<path d="M94 42H103V51H94V42Z" fill="black"/>
<path d="M103 42C107.971 42 112 46.0295 112 51H103V42Z" fill="black"/>
<path d="M112 51H103V55.5C103 62.9559 109.044 69 116.5 69C123.956 69 130 62.9559 130 55.5V51H121V55.5C121 57.9853 118.985 60 116.5 60C114.015 60 112 57.9853 112 55.5V51Z" fill="black"/>
</svg>
