<svg width="930" height="122" viewBox="0 0 930 122" fill="none" xmlns="http://www.w3.org/2000/svg">
<path d="M30.72 88.8C46.8 88.8 55.8 79.92 59.04 68.16H47.04C45.96 72.24 41.76 79.2 30.96 79.2C18.84 79.2 12.84 69.72 12.6 59.52H59.64C59.76 58.56 59.76 56.76 59.76 55.08C59.76 36.12 49.32 23.88 30.72 23.88C12 23.88 0.48 37.08 0.48 56.28C0.48 75 11.28 88.8 30.72 88.8ZM12.6 50.28C13.32 40.2 20.52 33.48 30.36 33.48C40.8 33.48 47.52 40.68 47.52 50.28H12.6ZM106.894 47.76V87H118.654V44.52C118.654 30.48 109.534 24 98.2538 24C87.6938 24 81.3338 28.8 78.0938 33.48H77.8538V25.8H66.0938V87H77.8538V49.44C77.8538 40.2 84.3338 34.08 94.4138 34.08C103.294 34.08 106.894 39.6 106.894 47.76ZM152.127 88.68C161.727 88.68 167.607 84.12 170.967 79.8H171.207V87H182.967V1.2H171.207V33.24H170.967C167.607 28.44 161.727 24 152.127 24C136.527 24 124.647 36.24 124.647 56.4C124.647 76.56 136.527 88.68 152.127 88.68ZM136.887 56.4C136.887 44.4 142.527 33.84 154.047 33.84C164.607 33.84 171.087 42.48 171.087 56.4C171.087 70.2 164.607 78.96 154.047 78.96C142.527 78.96 136.887 68.4 136.887 56.4ZM241.443 88.8C260.523 88.8 272.043 75.48 272.043 56.28C272.043 37.2 260.523 23.88 241.563 23.88C222.363 23.88 210.843 37.32 210.843 56.4C210.843 75.6 222.363 88.8 241.443 88.8ZM223.083 56.4C223.083 43.56 228.843 33.72 241.563 33.72C254.043 33.72 259.803 43.56 259.803 56.4C259.803 69.12 254.043 79.08 241.563 79.08C228.843 79.08 223.083 69.12 223.083 56.4ZM281.248 18.36V25.8H272.848V35.52H281.248V87H293.128V35.52H304.528V25.8H293.128V18.12C293.128 11.64 294.568 10.2 299.488 10.2C301.168 10.2 302.128 10.32 304.528 10.56V1.08C301.168 0.599997 299.368 0.359993 297.088 0.359993C287.128 0.359993 281.248 4.19999 281.248 18.36ZM355.883 98.3364V87H361.569V72.8208H355.883V58.6069H350.197V44.4277H344.512V30.2139H353.04V24.5283H324.682V30.2139H333.175V44.4277H338.826V58.6069H344.512V72.8208H350.197V98.3364H355.883ZM378.591 44.4277V30.2139H387.119V24.5283H364.411V30.2139H372.905V44.4277H378.591ZM372.905 58.6069V44.4277H367.254V58.6069H372.905ZM367.254 72.8208V58.6069H361.569V72.8208H367.254ZM350.197 109.708V98.3364H344.512V109.708H350.197ZM338.826 121.079V115.393H344.512V109.708H327.525V121.079H338.826ZM415.127 88.8C431.207 88.8 440.207 79.92 443.447 68.16H431.447C430.367 72.24 426.167 79.2 415.367 79.2C403.247 79.2 397.247 69.72 397.007 59.52H444.047C444.167 58.56 444.167 56.76 444.167 55.08C444.167 36.12 433.727 23.88 415.127 23.88C396.407 23.88 384.887 37.08 384.887 56.28C384.887 75 395.687 88.8 415.127 88.8ZM397.007 50.28C397.727 40.2 404.927 33.48 414.767 33.48C425.207 33.48 431.927 40.68 431.927 50.28H397.007ZM440.011 87H453.691L469.891 63.6H470.131L486.691 87H500.491L477.211 55.68L498.211 25.8H484.771L470.371 47.64H470.131L455.491 25.8H442.051L463.051 55.68L440.011 87ZM533.288 88.68C548.888 88.68 560.768 76.56 560.768 56.4C560.768 36.24 548.888 24 533.288 24C523.688 24 517.808 28.68 514.448 33H514.208V25.8H502.448V108.24H514.208V79.44H514.448C517.808 84.36 523.688 88.68 533.288 88.68ZM514.328 56.4C514.328 42.48 520.808 33.84 531.368 33.84C542.888 33.84 548.408 44.4 548.408 56.4C548.408 68.4 542.888 78.96 531.368 78.96C520.808 78.96 514.328 70.2 514.328 56.4ZM594.405 88.8C610.485 88.8 619.485 79.92 622.725 68.16H610.725C609.645 72.24 605.445 79.2 594.645 79.2C582.525 79.2 576.525 69.72 576.285 59.52H623.325C623.445 58.56 623.445 56.76 623.445 55.08C623.445 36.12 613.005 23.88 594.405 23.88C575.685 23.88 564.165 37.08 564.165 56.28C564.165 75 574.965 88.8 594.405 88.8ZM576.285 50.28C577.005 40.2 584.205 33.48 594.045 33.48C604.485 33.48 611.205 40.68 611.205 50.28H576.285ZM641.539 55.32C641.539 43.68 649.219 35.64 659.899 35.64C661.339 35.64 662.419 35.76 663.859 36V24.72C662.059 24.48 660.379 24.36 658.219 24.36C649.939 24.36 645.019 29.76 641.779 37.44H641.539V25.8H629.779V87H641.539V55.32ZM667.898 87H679.658V25.8H667.898V87ZM667.178 14.88H680.498V2.16H667.178V14.88ZM716.379 88.8C732.459 88.8 741.459 79.92 744.699 68.16H732.699C731.619 72.24 727.419 79.2 716.619 79.2C704.499 79.2 698.499 69.72 698.259 59.52H745.299C745.419 58.56 745.419 56.76 745.419 55.08C745.419 36.12 734.979 23.88 716.379 23.88C697.659 23.88 686.139 37.08 686.139 56.28C686.139 75 696.939 88.8 716.379 88.8ZM698.259 50.28C698.979 40.2 706.179 33.48 716.019 33.48C726.459 33.48 733.179 40.68 733.179 50.28H698.259ZM792.552 47.76V87H804.312V44.52C804.312 30.48 795.192 24 783.912 24C773.352 24 766.992 28.8 763.752 33.48H763.512V25.8H751.752V87H763.512V49.44C763.512 40.2 769.992 34.08 780.072 34.08C788.952 34.08 792.552 39.6 792.552 47.76ZM840.306 88.8C856.026 88.8 866.946 78.36 867.786 64.32H855.666C855.066 71.28 851.586 78.96 840.306 78.96C827.226 78.96 822.426 67.92 822.426 56.4C822.426 44.88 827.226 33.72 840.306 33.72C851.466 33.72 855.066 41.64 855.666 48H867.786C866.346 34.2 855.906 24 840.186 24C822.066 24 810.186 37.2 810.186 56.4C810.186 75.6 822.066 88.8 840.306 88.8ZM900.696 88.8C916.776 88.8 925.776 79.92 929.016 68.16H917.016C915.936 72.24 911.736 79.2 900.936 79.2C888.816 79.2 882.816 69.72 882.576 59.52H929.616C929.736 58.56 929.736 56.76 929.736 55.08C929.736 36.12 919.296 23.88 900.696 23.88C881.976 23.88 870.456 37.08 870.456 56.28C870.456 75 881.256 88.8 900.696 88.8ZM882.576 50.28C883.296 40.2 890.496 33.48 900.336 33.48C910.776 33.48 917.496 40.68 917.496 50.28H882.576Z" fill="#151515"/>
</svg>
